<?xml version="1.0" encoding="UTF-8" standalone="no"?>
<!-- Created with Inkscape (http://www.inkscape.org/) -->

<svg
   xmlns:dc="http://purl.org/dc/elements/1.1/"
   xmlns:cc="http://creativecommons.org/ns#"
   xmlns:rdf="http://www.w3.org/1999/02/22-rdf-syntax-ns#"
   xmlns:svg="http://www.w3.org/2000/svg"
   xmlns="http://www.w3.org/2000/svg"
   xmlns:xlink="http://www.w3.org/1999/xlink"
   xmlns:sodipodi="http://sodipodi.sourceforge.net/DTD/sodipodi-0.dtd"
   xmlns:inkscape="http://www.inkscape.org/namespaces/inkscape"
   width="84.666664mm"
   height="84.666664mm"
   viewBox="0 0 299.99999 299.99999"
   id="svg4211"
   version="1.1"
   inkscape:version="0.91 r13725"
   sodipodi:docname="logo.svg">
  <defs
     id="defs4213">
    <linearGradient
       gradientTransform="translate(-303.2092,886.15962)"
       inkscape:collect="always"
       xlink:href="#linearGradient4204"
       id="linearGradient4640-8"
       x1="472.61465"
       y1="-687.43866"
       x2="579.45966"
       y2="-459.49765"
       gradientUnits="userSpaceOnUse" />
    <linearGradient
       inkscape:collect="always"
       id="linearGradient4204">
      <stop
         style="stop-color:#000000;stop-opacity:1;"
         offset="0"
         id="stop4206" />
      <stop
         style="stop-color:#000000;stop-opacity:0;"
         offset="1"
         id="stop4208" />
    </linearGradient>
  </defs>
  <sodipodi:namedview
     id="base"
     pagecolor="#ffffff"
     bordercolor="#666666"
     borderopacity="1.0"
     inkscape:pageopacity="0.0"
     inkscape:pageshadow="2"
     inkscape:zoom="0.35"
     inkscape:cx="-140.6148"
     inkscape:cy="-128.65591"
     inkscape:document-units="px"
     inkscape:current-layer="layer1"
     showgrid="false"
     fit-margin-top="0"
     fit-margin-left="0"
     fit-margin-right="0"
     fit-margin-bottom="0"
     inkscape:window-width="1366"
     inkscape:window-height="705"
     inkscape:window-x="-8"
     inkscape:window-y="-8"
     inkscape:window-maximized="1" />
  <metadata
     id="metadata4216">
    <rdf:RDF>
      <cc:Work
         rdf:about="">
        <dc:format>image/svg+xml</dc:format>
        <dc:type
           rdf:resource="http://purl.org/dc/dcmitype/StillImage" />
        <dc:title></dc:title>
      </cc:Work>
    </rdf:RDF>
  </metadata>
  <g
     inkscape:label="Layer 1"
     inkscape:groupmode="layer"
     id="layer1"
     transform="translate(-94.186234,-103.70629)">
    <rect
       style="opacity:1;fill:#fc4c02;fill-opacity:1;fill-rule:nonzero;stroke:none;stroke-width:20;stroke-linecap:round;stroke-linejoin:miter;stroke-miterlimit:3.9000001;stroke-dasharray:none;stroke-dashoffset:0;stroke-opacity:0.99215686"
       id="rect4149-9-5-9-0"
       width="300"
       height="300"
       x="94.186234"
       y="103.70629"
       rx="40"
       ry="40"
       inkscape:export-xdpi="38.400002"
       inkscape:export-ydpi="38.400002" />
    <path
       style="opacity:0.11300001;fill:url(#linearGradient4640-8);fill-opacity:1;fill-rule:nonzero;stroke:none;stroke-width:5.94899988;stroke-linecap:round;stroke-linejoin:miter;stroke-miterlimit:4;stroke-dasharray:none;stroke-dashoffset:0;stroke-opacity:1"
       d="m 273.50051,171.14855 c -16.8681,0 -30.449,6.37498 -40.7441,19.125 -9.3527,11.58293 -14.4426,26.47797 -15.2989,44.66211 -0.039,0.83739 -0.074,1.67791 -0.096,2.5293 -0.029,1.00859 -0.049,2.02525 -0.049,3.05664 l 0,26.13281 c 0,1.31163 0.02,2.60725 0.061,3.88672 0.078,2.46283 0.2326,4.86142 0.459,7.20508 0.01,0.0915 0.014,0.18608 0.024,0.27734 0,6.4e-4 -10e-5,10e-4 0,0.002 0.2413,2.4296 0.5627,4.79471 0.9648,7.09571 10e-5,6.2e-4 -1e-4,10e-4 0,0.002 0.201,1.15015 0.4229,2.28433 0.6641,3.40234 0.7238,3.35528 1.6292,6.56697 2.7148,9.63282 2e-4,5.8e-4 -2e-4,0.001 0,0.002 0.7237,2.04367 1.5276,4.02246 2.4121,5.9375 3e-4,5.4e-4 -2e-4,0.001 0,0.002 0.8848,1.91555 1.8509,3.7659 2.8965,5.55274 1.5682,2.6798 3.3181,5.21519 5.2481,7.60547 3e-4,4e-4 -4e-4,0.002 0,0.002 0.04,0.0489 0.081,0.0938 0.121,0.14258 0.5213,0.63745 1.0537,1.25441 1.5918,1.85937 0.2012,0.22623 0.404,0.44822 0.6075,0.66993 0.425,0.46285 0.8557,0.91435 1.291,1.35742 0.1964,0.20014 0.3913,0.40348 0.5898,0.59961 0.5726,0.56508 1.1522,1.11684 1.7422,1.64843 0.2545,0.22959 0.5158,0.44655 0.7735,0.66993 0.3678,0.3184 0.7368,0.63372 1.1113,0.93945 0.3181,0.26016 0.6381,0.51656 0.9609,0.76758 0.3338,0.25905 0.6729,0.50853 1.0117,0.75781 0.6501,0.4791 1.3099,0.93967 1.9786,1.38281 0.2209,0.14616 0.439,0.29722 0.6621,0.43946 0.4717,0.30144 0.9508,0.58916 1.4316,0.87304 0.1551,0.0914 0.3108,0.18194 0.4668,0.27149 1.612,0.92708 3.2751,1.75626 4.9883,2.48828 0.082,0.0349 0.1639,0.069 0.2461,0.10351 2.4582,1.03408 5.0201,1.86725 7.6855,2.50196 4.2362,1.00873 8.7249,1.5332 13.4844,1.5332 16.6304,0 29.776,-4.07949 39.4375,-12.23633 9.7407,-8.15684 14.6113,-20.43134 14.6113,-36.82422 l 5.4649,0 0.2382,0.71289 c 0.3169,17.73916 -5.0693,31.32022 -16.1562,40.74414 -11.0078,9.34474 -25.5398,14.01758 -43.5957,14.01758 -3.6115,0 -7.0843,-0.25819 -10.4219,-0.76562 -1e-4,-2e-5 10e-5,-0.002 0,-0.002 -0.177,-0.0269 -0.3491,-0.0634 -0.5254,-0.0918 -0.736,-0.11838 -1.4687,-0.2415 -2.1914,-0.38477 -0.5008,-0.0993 -0.9919,-0.2169 -1.4863,-0.32812 -0.4659,-0.10484 -0.9324,-0.20876 -1.3926,-0.32422 -0.4763,-0.11949 -0.9477,-0.24805 -1.4179,-0.37891 -0.4863,-0.13537 -0.9696,-0.27629 -1.4493,-0.42383 -0.44,-0.13529 -0.8799,-0.27244 -1.3144,-0.41797 -0.5156,-0.17275 -1.0235,-0.35774 -1.5313,-0.54492 -0.3927,-0.14469 -0.7896,-0.28223 -1.1777,-0.43554 -0.8294,-0.32785 -1.6489,-0.67572 -2.457,-1.04297 -0.3628,-0.16477 -0.7178,-0.34488 -1.0762,-0.51758 -0.4973,-0.23971 -0.9934,-0.48134 -1.4824,-0.73633 -0.3869,-0.20159 -0.7688,-0.4119 -1.1504,-0.62305 -0.4529,-0.25066 -0.9021,-0.50736 -1.3477,-0.77148 -0.384,-0.22751 -0.7659,-0.45781 -1.1445,-0.69531 -0.4756,-0.29849 -0.945,-0.60957 -1.4121,-0.92383 -0.3102,-0.20863 -0.6232,-0.41136 -0.9297,-0.62695 -0.7594,-0.53441 -1.5098,-1.08498 -2.2461,-1.66211 -0.199,-0.15589 -0.3906,-0.32538 -0.5879,-0.48438 -0.5564,-0.44863 -1.1093,-0.90546 -1.6523,-1.3789 -0.2814,-0.24522 -0.5582,-0.49813 -0.836,-0.75 -0.4618,-0.41888 -0.9192,-0.84592 -1.3711,-1.28321 -0.2797,-0.2707 -0.558,-0.5445 -0.8339,-0.82226 -0.4462,-0.44918 -0.8861,-0.90933 -1.3223,-1.37696 -0.2597,-0.27837 -0.5212,-0.55297 -0.7774,-0.83789 -0.6022,-0.66987 -1.1946,-1.35648 -1.7773,-2.0625 -0.06,-0.0729 -0.1236,-0.1396 -0.1836,-0.21289 -3e-4,-4e-4 3e-4,-0.002 0,-0.002 -0.266,-0.32695 -0.5136,-0.66832 -0.7734,-1 -0.4445,-0.56775 -0.8961,-1.13114 -1.3223,-1.71289 -0.1453,-0.19831 -0.2787,-0.40554 -0.4219,-0.60547 -0.5203,-0.72659 -1.0369,-1.45518 -1.5293,-2.20313 -0.1565,-0.23748 -0.2994,-0.48497 -0.4531,-0.72461 -0.4741,-0.74001 -0.9472,-1.48177 -1.3945,-2.24218 -0.049,-0.0839 -0.094,-0.17168 -0.1426,-0.25586 -0.5322,-0.91335 -1.0489,-1.83688 -1.543,-2.7793 -6.3478,-12.10799 -9.5254,-26.63645 -9.5254,-43.59375 l 0,-25.89648 c 0,-6.34851 0.4634,-12.34531 1.3594,-18.01563 l -16.3535,-38.34961 -2.6484,0 a 27.676765,27.676765 0 0 1 2.3125,10.99219 27.676765,27.676765 0 0 1 -27.6758,27.67773 27.676765,27.676765 0 0 1 -27.67776,-27.67773 27.676765,27.676765 0 0 1 2.28906,-10.99219 l -2.63672,0 0,22.83594 117.46482,275.45508 26.5664,-11.33008 75.8575,192.52148 128.914,-59.49804 -156.0508,-396.04688 c 0.4798,3.45206 0.7023,7.08659 0.6328,10.92774 l -0.2382,0.71289 -5.4649,0 c 0,-15.60096 -4.8706,-27.63772 -14.6113,-36.11133 -9.6615,-8.47362 -22.8071,-12.71094 -39.4375,-12.71094 z"
       id="rect4552-5"
       inkscape:connector-curvature="0" />
    <circle
       style="opacity:0.98999999;fill:none;fill-opacity:1;fill-rule:nonzero;stroke:#ffffff;stroke-width:5.94899988;stroke-linecap:round;stroke-linejoin:miter;stroke-miterlimit:4;stroke-dasharray:none;stroke-dashoffset:0;stroke-opacity:1"
       id="path4539-9"
       cx="167.89149"
       cy="195.38463"
       r="27.676765" />
    <text
       xml:space="preserve"
       style="font-style:normal;font-variant:normal;font-weight:normal;font-stretch:normal;font-size:243.27983093px;line-height:125%;font-family:'Courier New';-inkscape-font-specification:'Courier New';text-align:center;letter-spacing:0px;word-spacing:0px;text-anchor:middle;fill:#ffffff;fill-opacity:1;stroke:none;stroke-width:1px;stroke-linecap:butt;stroke-linejoin:miter;stroke-opacity:1"
       x="272.66861"
       y="340.18469"
       id="text4391-2-5-7"
       sodipodi:linespacing="125%"><tspan
         sodipodi:role="line"
         id="tspan4393-2-5-9"
         x="272.66861"
         y="340.18469"
         style="font-style:normal;font-variant:normal;font-weight:300;font-stretch:normal;font-family:Roboto;-inkscape-font-specification:'Roboto Light';fill:#ffffff">C</tspan></text>
  </g>
</svg>
